%TF.GenerationSoftware,KiCad,Pcbnew,6.0.7+dfsg-1~bpo11+1*%
%TF.CreationDate,2022-11-02T04:35:50+00:00*%
%TF.ProjectId,MK74HC-16,4d4b3734-4843-42d3-9136-2e6b69636164,rev?*%
%TF.SameCoordinates,Original*%
%TF.FileFunction,Legend,Top*%
%TF.FilePolarity,Positive*%
%FSLAX46Y46*%
G04 Gerber Fmt 4.6, Leading zero omitted, Abs format (unit mm)*
G04 Created by KiCad (PCBNEW 6.0.7+dfsg-1~bpo11+1) date 2022-11-02 04:35:50*
%MOMM*%
%LPD*%
G01*
G04 APERTURE LIST*
%ADD10C,0.150000*%
%ADD11C,0.120000*%
G04 APERTURE END LIST*
D10*
X86135071Y47845239D02*
X86277928Y47797620D01*
X86516023Y47797620D01*
X86611261Y47845239D01*
X86658880Y47892858D01*
X86706500Y47988096D01*
X86706500Y48083334D01*
X86658880Y48178572D01*
X86611261Y48226191D01*
X86516023Y48273810D01*
X86325547Y48321429D01*
X86230309Y48369048D01*
X86182690Y48416667D01*
X86135071Y48511905D01*
X86135071Y48607143D01*
X86182690Y48702381D01*
X86230309Y48750000D01*
X86325547Y48797620D01*
X86563642Y48797620D01*
X86706500Y48750000D01*
X87611261Y47797620D02*
X87135071Y47797620D01*
X87135071Y48797620D01*
X85516023Y45257620D02*
X85182690Y45733810D01*
X84944595Y45257620D02*
X84944595Y46257620D01*
X85325547Y46257620D01*
X85420785Y46210000D01*
X85468404Y46162381D01*
X85516023Y46067143D01*
X85516023Y45924286D01*
X85468404Y45829048D01*
X85420785Y45781429D01*
X85325547Y45733810D01*
X84944595Y45733810D01*
X86468404Y46210000D02*
X86373166Y46257620D01*
X86230309Y46257620D01*
X86087452Y46210000D01*
X85992214Y46114762D01*
X85944595Y46019524D01*
X85896976Y45829048D01*
X85896976Y45686191D01*
X85944595Y45495715D01*
X85992214Y45400477D01*
X86087452Y45305239D01*
X86230309Y45257620D01*
X86325547Y45257620D01*
X86468404Y45305239D01*
X86516023Y45352858D01*
X86516023Y45686191D01*
X86325547Y45686191D01*
X87277928Y45781429D02*
X87420785Y45733810D01*
X87468404Y45686191D01*
X87516023Y45590953D01*
X87516023Y45448096D01*
X87468404Y45352858D01*
X87420785Y45305239D01*
X87325547Y45257620D01*
X86944595Y45257620D01*
X86944595Y46257620D01*
X87277928Y46257620D01*
X87373166Y46210000D01*
X87420785Y46162381D01*
X87468404Y46067143D01*
X87468404Y45971905D01*
X87420785Y45876667D01*
X87373166Y45829048D01*
X87277928Y45781429D01*
X86944595Y45781429D01*
X85420785Y58910000D02*
X85325547Y58957620D01*
X85182690Y58957620D01*
X85039833Y58910000D01*
X84944595Y58814762D01*
X84896976Y58719524D01*
X84849357Y58529048D01*
X84849357Y58386191D01*
X84896976Y58195715D01*
X84944595Y58100477D01*
X85039833Y58005239D01*
X85182690Y57957620D01*
X85277928Y57957620D01*
X85420785Y58005239D01*
X85468404Y58052858D01*
X85468404Y58386191D01*
X85277928Y58386191D01*
X85896976Y57957620D02*
X85896976Y58957620D01*
X86468404Y57957620D01*
X86468404Y58957620D01*
X86944595Y57957620D02*
X86944595Y58957620D01*
X87182690Y58957620D01*
X87325547Y58910000D01*
X87420785Y58814762D01*
X87468404Y58719524D01*
X87516023Y58529048D01*
X87516023Y58386191D01*
X87468404Y58195715D01*
X87420785Y58100477D01*
X87325547Y58005239D01*
X87182690Y57957620D01*
X86944595Y57957620D01*
X86611261Y41177620D02*
X86135071Y41177620D01*
X86087452Y40701429D01*
X86135071Y40749048D01*
X86230309Y40796667D01*
X86468404Y40796667D01*
X86563642Y40749048D01*
X86611261Y40701429D01*
X86658880Y40606191D01*
X86658880Y40368096D01*
X86611261Y40272858D01*
X86563642Y40225239D01*
X86468404Y40177620D01*
X86230309Y40177620D01*
X86135071Y40225239D01*
X86087452Y40272858D01*
X86944595Y41177620D02*
X87277928Y40177620D01*
X87611261Y41177620D01*
X85087452Y52925239D02*
X85230309Y52877620D01*
X85468404Y52877620D01*
X85563642Y52925239D01*
X85611261Y52972858D01*
X85658880Y53068096D01*
X85658880Y53163334D01*
X85611261Y53258572D01*
X85563642Y53306191D01*
X85468404Y53353810D01*
X85277928Y53401429D01*
X85182690Y53449048D01*
X85135071Y53496667D01*
X85087452Y53591905D01*
X85087452Y53687143D01*
X85135071Y53782381D01*
X85182690Y53830000D01*
X85277928Y53877620D01*
X85516023Y53877620D01*
X85658880Y53830000D01*
X86087452Y52877620D02*
X86087452Y53877620D01*
X86325547Y53877620D01*
X86468404Y53830000D01*
X86563642Y53734762D01*
X86611261Y53639524D01*
X86658880Y53449048D01*
X86658880Y53306191D01*
X86611261Y53115715D01*
X86563642Y53020477D01*
X86468404Y52925239D01*
X86325547Y52877620D01*
X86087452Y52877620D01*
X87039833Y53163334D02*
X87516023Y53163334D01*
X86944595Y52877620D02*
X87277928Y53877620D01*
X87611261Y52877620D01*
X85135071Y55465239D02*
X85277928Y55417620D01*
X85516023Y55417620D01*
X85611261Y55465239D01*
X85658880Y55512858D01*
X85706500Y55608096D01*
X85706500Y55703334D01*
X85658880Y55798572D01*
X85611261Y55846191D01*
X85516023Y55893810D01*
X85325547Y55941429D01*
X85230309Y55989048D01*
X85182690Y56036667D01*
X85135071Y56131905D01*
X85135071Y56227143D01*
X85182690Y56322381D01*
X85230309Y56370000D01*
X85325547Y56417620D01*
X85563642Y56417620D01*
X85706500Y56370000D01*
X86706500Y55512858D02*
X86658880Y55465239D01*
X86516023Y55417620D01*
X86420785Y55417620D01*
X86277928Y55465239D01*
X86182690Y55560477D01*
X86135071Y55655715D01*
X86087452Y55846191D01*
X86087452Y55989048D01*
X86135071Y56179524D01*
X86182690Y56274762D01*
X86277928Y56370000D01*
X86420785Y56417620D01*
X86516023Y56417620D01*
X86658880Y56370000D01*
X86706500Y56322381D01*
X87611261Y55417620D02*
X87135071Y55417620D01*
X87135071Y56417620D01*
X86563642Y50432858D02*
X86516023Y50385239D01*
X86373166Y50337620D01*
X86277928Y50337620D01*
X86135071Y50385239D01*
X86039833Y50480477D01*
X85992214Y50575715D01*
X85944595Y50766191D01*
X85944595Y50909048D01*
X85992214Y51099524D01*
X86039833Y51194762D01*
X86135071Y51290000D01*
X86277928Y51337620D01*
X86373166Y51337620D01*
X86516023Y51290000D01*
X86563642Y51242381D01*
X86944595Y50385239D02*
X87087452Y50337620D01*
X87325547Y50337620D01*
X87420785Y50385239D01*
X87468404Y50432858D01*
X87516023Y50528096D01*
X87516023Y50623334D01*
X87468404Y50718572D01*
X87420785Y50766191D01*
X87325547Y50813810D01*
X87135071Y50861429D01*
X87039833Y50909048D01*
X86992214Y50956667D01*
X86944595Y51051905D01*
X86944595Y51147143D01*
X86992214Y51242381D01*
X87039833Y51290000D01*
X87135071Y51337620D01*
X87373166Y51337620D01*
X87516023Y51290000D01*
X85087452Y43717620D02*
X85706500Y43717620D01*
X85373166Y43336667D01*
X85516023Y43336667D01*
X85611261Y43289048D01*
X85658880Y43241429D01*
X85706500Y43146191D01*
X85706500Y42908096D01*
X85658880Y42812858D01*
X85611261Y42765239D01*
X85516023Y42717620D01*
X85230309Y42717620D01*
X85135071Y42765239D01*
X85087452Y42812858D01*
X85992214Y43717620D02*
X86325547Y42717620D01*
X86658880Y43717620D01*
X86896976Y43717620D02*
X87516023Y43717620D01*
X87182690Y43336667D01*
X87325547Y43336667D01*
X87420785Y43289048D01*
X87468404Y43241429D01*
X87516023Y43146191D01*
X87516023Y42908096D01*
X87468404Y42812858D01*
X87420785Y42765239D01*
X87325547Y42717620D01*
X87039833Y42717620D01*
X86944595Y42765239D01*
X86896976Y42812858D01*
D11*
%TO.C,D27*%
X47510000Y73784000D02*
X46310000Y73784000D01*
X46310000Y71934000D02*
X46310000Y73784000D01*
X47510000Y71934000D02*
X47510000Y73784000D01*
%TO.C,D13*%
X70002000Y10226000D02*
X70002000Y10026000D01*
X73602000Y7026000D02*
X70002000Y7026000D01*
X70002000Y7026000D02*
X70002000Y7226000D01*
X73602000Y7026000D02*
X73602000Y7226000D01*
X73802000Y10226000D02*
X70002000Y10226000D01*
X73802000Y10226000D02*
X74002000Y10026000D01*
%TO.C,C15*%
X67083836Y8236000D02*
X66868164Y8236000D01*
X67083836Y7516000D02*
X66868164Y7516000D01*
%TO.C,D8*%
X16652000Y48326000D02*
X16852000Y48126000D01*
X16652000Y48326000D02*
X12852000Y48326000D01*
X12852000Y48326000D02*
X12852000Y48126000D01*
X16452000Y45126000D02*
X16452000Y45326000D01*
X16452000Y45126000D02*
X12852000Y45126000D01*
X12852000Y45126000D02*
X12852000Y45326000D01*
%TO.C,D17*%
X66560000Y54734000D02*
X65360000Y54734000D01*
X65360000Y52884000D02*
X65360000Y54734000D01*
X66560000Y52884000D02*
X66560000Y54734000D01*
%TO.C,RN4*%
X82250000Y28570000D02*
X82750000Y28570000D01*
X82250000Y30930000D02*
X82750000Y30930000D01*
%TO.C,D28*%
X46310000Y33834000D02*
X46310000Y35684000D01*
X47510000Y35684000D02*
X46310000Y35684000D01*
X47510000Y33834000D02*
X47510000Y35684000D01*
%TO.C,D24*%
X8210000Y14784000D02*
X8210000Y16634000D01*
X9410000Y14784000D02*
X9410000Y16634000D01*
X9410000Y16634000D02*
X8210000Y16634000D01*
%TO.C,C17*%
X28983836Y7516000D02*
X28768164Y7516000D01*
X28983836Y8236000D02*
X28768164Y8236000D01*
%TO.C,C8*%
X9933836Y46336000D02*
X9718164Y46336000D01*
X9933836Y45616000D02*
X9718164Y45616000D01*
%TO.C,D1*%
X73602000Y64176000D02*
X70002000Y64176000D01*
X73602000Y64176000D02*
X73602000Y64376000D01*
X73802000Y67376000D02*
X70002000Y67376000D01*
X73802000Y67376000D02*
X74002000Y67176000D01*
X70002000Y64176000D02*
X70002000Y64376000D01*
X70002000Y67376000D02*
X70002000Y67176000D01*
%TO.C,C11*%
X67083836Y26566000D02*
X66868164Y26566000D01*
X67083836Y27286000D02*
X66868164Y27286000D01*
%TO.C,C12*%
X48033836Y26566000D02*
X47818164Y26566000D01*
X48033836Y27286000D02*
X47818164Y27286000D01*
%TO.C,C13*%
X28983836Y27286000D02*
X28768164Y27286000D01*
X28983836Y26566000D02*
X28768164Y26566000D01*
%TO.C,D3*%
X31902000Y67376000D02*
X31902000Y67176000D01*
X35502000Y64176000D02*
X35502000Y64376000D01*
X35502000Y64176000D02*
X31902000Y64176000D01*
X35702000Y67376000D02*
X31902000Y67376000D01*
X35702000Y67376000D02*
X35902000Y67176000D01*
X31902000Y64176000D02*
X31902000Y64376000D01*
%TO.C,R1*%
X76781641Y64646000D02*
X76474359Y64646000D01*
X76781641Y65406000D02*
X76474359Y65406000D01*
%TO.C,D5*%
X73802000Y48326000D02*
X74002000Y48126000D01*
X73602000Y45126000D02*
X70002000Y45126000D01*
X70002000Y48326000D02*
X70002000Y48126000D01*
X70002000Y45126000D02*
X70002000Y45326000D01*
X73602000Y45126000D02*
X73602000Y45326000D01*
X73802000Y48326000D02*
X70002000Y48326000D01*
%TO.C,J1*%
X90815000Y57105000D02*
X93475000Y57105000D01*
X93475000Y48595000D02*
X99475000Y48595000D01*
X90815000Y46945000D02*
X93475000Y46945000D01*
X99475000Y42755000D02*
X93475000Y42755000D01*
X90417929Y40975000D02*
X90815000Y40975000D01*
X90417929Y56215000D02*
X90815000Y56215000D01*
X90417929Y43515000D02*
X90815000Y43515000D01*
X93475000Y58455000D02*
X99475000Y58455000D01*
X93475000Y46055000D02*
X99475000Y46055000D01*
X90815000Y49485000D02*
X93475000Y49485000D01*
X99475000Y50375000D02*
X93475000Y50375000D01*
X90417929Y42755000D02*
X90815000Y42755000D01*
X99475000Y55455000D02*
X93475000Y55455000D01*
X90417929Y48595000D02*
X90815000Y48595000D01*
X99475000Y46055000D02*
X99475000Y45295000D01*
X93475000Y56215000D02*
X99475000Y56215000D01*
X90417929Y55455000D02*
X90815000Y55455000D01*
X99475000Y56215000D02*
X99475000Y55455000D01*
X93475000Y58215000D02*
X99475000Y58215000D01*
X93475000Y58695000D02*
X99475000Y58695000D01*
X93475000Y58335000D02*
X99475000Y58335000D01*
X99475000Y53675000D02*
X99475000Y52915000D01*
X90417929Y46055000D02*
X90815000Y46055000D01*
X90815000Y41865000D02*
X93475000Y41865000D01*
X90815000Y54565000D02*
X93475000Y54565000D01*
X90417929Y40215000D02*
X90815000Y40215000D01*
X93475000Y40975000D02*
X99475000Y40975000D01*
X93475000Y58095000D02*
X99475000Y58095000D01*
X93475000Y51135000D02*
X99475000Y51135000D01*
X99475000Y40975000D02*
X99475000Y40215000D01*
X90417929Y51135000D02*
X90815000Y51135000D01*
X99475000Y40215000D02*
X93475000Y40215000D01*
X99475000Y57995000D02*
X93475000Y57995000D01*
X90417929Y50375000D02*
X90815000Y50375000D01*
X90815000Y44405000D02*
X93475000Y44405000D01*
X90417929Y47835000D02*
X90815000Y47835000D01*
X99475000Y51135000D02*
X99475000Y50375000D01*
X88105000Y59645000D02*
X89375000Y59645000D01*
X90815000Y59705000D02*
X90815000Y39265000D01*
X93475000Y53675000D02*
X99475000Y53675000D01*
X93475000Y39265000D02*
X93475000Y59705000D01*
X90417929Y52915000D02*
X90815000Y52915000D01*
X99475000Y52915000D02*
X93475000Y52915000D01*
X99475000Y43515000D02*
X99475000Y42755000D01*
X88105000Y58375000D02*
X88105000Y59645000D01*
X90417929Y45295000D02*
X90815000Y45295000D01*
X90815000Y52025000D02*
X93475000Y52025000D01*
X93475000Y59705000D02*
X90815000Y59705000D01*
X90417929Y53675000D02*
X90815000Y53675000D01*
X90485000Y58755000D02*
X90815000Y58755000D01*
X93475000Y58755000D02*
X99475000Y58755000D01*
X90815000Y39265000D02*
X93475000Y39265000D01*
X90485000Y57995000D02*
X90815000Y57995000D01*
X99475000Y47835000D02*
X93475000Y47835000D01*
X93475000Y58575000D02*
X99475000Y58575000D01*
X99475000Y48595000D02*
X99475000Y47835000D01*
X93475000Y43515000D02*
X99475000Y43515000D01*
X99475000Y58755000D02*
X99475000Y57995000D01*
X99475000Y45295000D02*
X93475000Y45295000D01*
%TO.C,D29*%
X28460000Y71934000D02*
X28460000Y73784000D01*
X28460000Y73784000D02*
X27260000Y73784000D01*
X27260000Y71934000D02*
X27260000Y73784000D01*
%TO.C,RN3*%
X82250000Y33430000D02*
X82750000Y33430000D01*
X82250000Y31070000D02*
X82750000Y31070000D01*
%TO.C,D10*%
X54552000Y26076000D02*
X54552000Y26276000D01*
X50952000Y29276000D02*
X50952000Y29076000D01*
X54552000Y26076000D02*
X50952000Y26076000D01*
X54752000Y29276000D02*
X54952000Y29076000D01*
X54752000Y29276000D02*
X50952000Y29276000D01*
X50952000Y26076000D02*
X50952000Y26276000D01*
%TO.C,D6*%
X54752000Y48326000D02*
X54952000Y48126000D01*
X54752000Y48326000D02*
X50952000Y48326000D01*
X54552000Y45126000D02*
X54552000Y45326000D01*
X50952000Y48326000D02*
X50952000Y48126000D01*
X50952000Y45126000D02*
X50952000Y45326000D01*
X54552000Y45126000D02*
X50952000Y45126000D01*
%TO.C,C10*%
X85915000Y35642164D02*
X85915000Y35857836D01*
X85195000Y35642164D02*
X85195000Y35857836D01*
%TO.C,U1*%
X84940000Y69000000D02*
X84940000Y70950000D01*
X95060000Y69000000D02*
X95060000Y70950000D01*
X84940000Y69000000D02*
X84940000Y65550000D01*
X95060000Y69000000D02*
X95060000Y67050000D01*
%TO.C,D7*%
X35502000Y45126000D02*
X35502000Y45326000D01*
X35702000Y48326000D02*
X35902000Y48126000D01*
X31902000Y48326000D02*
X31902000Y48126000D01*
X31902000Y45126000D02*
X31902000Y45326000D01*
X35702000Y48326000D02*
X31902000Y48326000D01*
X35502000Y45126000D02*
X31902000Y45126000D01*
%TO.C,D2*%
X50952000Y64176000D02*
X50952000Y64376000D01*
X54752000Y67376000D02*
X50952000Y67376000D01*
X54552000Y64176000D02*
X50952000Y64176000D01*
X50952000Y67376000D02*
X50952000Y67176000D01*
X54552000Y64176000D02*
X54552000Y64376000D01*
X54752000Y67376000D02*
X54952000Y67176000D01*
%TO.C,D18*%
X66560000Y14784000D02*
X66560000Y16634000D01*
X66560000Y16634000D02*
X65360000Y16634000D01*
X65360000Y14784000D02*
X65360000Y16634000D01*
%TO.C,C5*%
X67083836Y46336000D02*
X66868164Y46336000D01*
X67083836Y45616000D02*
X66868164Y45616000D01*
%TO.C,C3*%
X28983836Y65386000D02*
X28768164Y65386000D01*
X28983836Y64666000D02*
X28768164Y64666000D01*
%TO.C,C2*%
X48033836Y65386000D02*
X47818164Y65386000D01*
X48033836Y64666000D02*
X47818164Y64666000D01*
%TO.C,D23*%
X8210000Y52884000D02*
X8210000Y54734000D01*
X9410000Y52884000D02*
X9410000Y54734000D01*
X9410000Y54734000D02*
X8210000Y54734000D01*
%TO.C,C4*%
X9933836Y65386000D02*
X9718164Y65386000D01*
X9933836Y64666000D02*
X9718164Y64666000D01*
%TO.C,C16*%
X48033836Y7516000D02*
X47818164Y7516000D01*
X48033836Y8236000D02*
X47818164Y8236000D01*
%TO.C,RN2*%
X82250000Y68930000D02*
X82750000Y68930000D01*
X82250000Y66570000D02*
X82750000Y66570000D01*
%TO.C,D26*%
X66560000Y35684000D02*
X65360000Y35684000D01*
X66560000Y33834000D02*
X66560000Y35684000D01*
X65360000Y33834000D02*
X65360000Y35684000D01*
%TO.C,D31*%
X8210000Y71934000D02*
X8210000Y73784000D01*
X9410000Y71934000D02*
X9410000Y73784000D01*
X9410000Y73784000D02*
X8210000Y73784000D01*
%TO.C,D4*%
X16452000Y64176000D02*
X16452000Y64376000D01*
X16652000Y67376000D02*
X16852000Y67176000D01*
X16652000Y67376000D02*
X12852000Y67376000D01*
X12852000Y64176000D02*
X12852000Y64376000D01*
X12852000Y67376000D02*
X12852000Y67176000D01*
X16452000Y64176000D02*
X12852000Y64176000D01*
%TO.C,D16*%
X12852000Y7026000D02*
X12852000Y7226000D01*
X16652000Y10226000D02*
X16852000Y10026000D01*
X16452000Y7026000D02*
X12852000Y7026000D01*
X12852000Y10226000D02*
X12852000Y10026000D01*
X16652000Y10226000D02*
X12852000Y10226000D01*
X16452000Y7026000D02*
X16452000Y7226000D01*
%TO.C,D32*%
X8210000Y33834000D02*
X8210000Y35684000D01*
X9410000Y35684000D02*
X8210000Y35684000D01*
X9410000Y33834000D02*
X9410000Y35684000D01*
%TO.C,RN1*%
X82250000Y71430000D02*
X82750000Y71430000D01*
X82250000Y69070000D02*
X82750000Y69070000D01*
%TO.C,D19*%
X47510000Y52884000D02*
X47510000Y54734000D01*
X46310000Y52884000D02*
X46310000Y54734000D01*
X47510000Y54734000D02*
X46310000Y54734000D01*
%TO.C,C7*%
X28983836Y46336000D02*
X28768164Y46336000D01*
X28983836Y45616000D02*
X28768164Y45616000D01*
%TO.C,D11*%
X35702000Y29276000D02*
X35902000Y29076000D01*
X31902000Y29276000D02*
X31902000Y29076000D01*
X35702000Y29276000D02*
X31902000Y29276000D01*
X31902000Y26076000D02*
X31902000Y26276000D01*
X35502000Y26076000D02*
X35502000Y26276000D01*
X35502000Y26076000D02*
X31902000Y26076000D01*
%TO.C,D20*%
X47510000Y16634000D02*
X46310000Y16634000D01*
X47510000Y14784000D02*
X47510000Y16634000D01*
X46310000Y14784000D02*
X46310000Y16634000D01*
%TO.C,D14*%
X54552000Y7026000D02*
X50952000Y7026000D01*
X54752000Y10226000D02*
X50952000Y10226000D01*
X54552000Y7026000D02*
X54552000Y7226000D01*
X50952000Y10226000D02*
X50952000Y10026000D01*
X50952000Y7026000D02*
X50952000Y7226000D01*
X54752000Y10226000D02*
X54952000Y10026000D01*
%TO.C,C1*%
X67083836Y64666000D02*
X66868164Y64666000D01*
X67083836Y65386000D02*
X66868164Y65386000D01*
%TO.C,C9*%
X85195000Y73642164D02*
X85195000Y73857836D01*
X85915000Y73642164D02*
X85915000Y73857836D01*
%TO.C,C18*%
X9933836Y8236000D02*
X9718164Y8236000D01*
X9933836Y7516000D02*
X9718164Y7516000D01*
%TO.C,D22*%
X28460000Y16634000D02*
X27260000Y16634000D01*
X27260000Y14784000D02*
X27260000Y16634000D01*
X28460000Y14784000D02*
X28460000Y16634000D01*
%TO.C,C14*%
X9933836Y26566000D02*
X9718164Y26566000D01*
X9933836Y27286000D02*
X9718164Y27286000D01*
%TO.C,D12*%
X16652000Y29276000D02*
X12852000Y29276000D01*
X12852000Y29276000D02*
X12852000Y29076000D01*
X12852000Y26076000D02*
X12852000Y26276000D01*
X16452000Y26076000D02*
X12852000Y26076000D01*
X16452000Y26076000D02*
X16452000Y26276000D01*
X16652000Y29276000D02*
X16852000Y29076000D01*
%TO.C,D21*%
X28460000Y52884000D02*
X28460000Y54734000D01*
X27260000Y52884000D02*
X27260000Y54734000D01*
X28460000Y54734000D02*
X27260000Y54734000D01*
%TO.C,D9*%
X70002000Y29276000D02*
X70002000Y29076000D01*
X73802000Y29276000D02*
X74002000Y29076000D01*
X73802000Y29276000D02*
X70002000Y29276000D01*
X70002000Y26076000D02*
X70002000Y26276000D01*
X73602000Y26076000D02*
X73602000Y26276000D01*
X73602000Y26076000D02*
X70002000Y26076000D01*
%TO.C,D15*%
X35702000Y10226000D02*
X35902000Y10026000D01*
X35702000Y10226000D02*
X31902000Y10226000D01*
X31902000Y10226000D02*
X31902000Y10026000D01*
X31902000Y7026000D02*
X31902000Y7226000D01*
X35502000Y7026000D02*
X31902000Y7026000D01*
X35502000Y7026000D02*
X35502000Y7226000D01*
%TO.C,U2*%
X95060000Y31000000D02*
X95060000Y29050000D01*
X84940000Y31000000D02*
X84940000Y32950000D01*
X95060000Y31000000D02*
X95060000Y32950000D01*
X84940000Y31000000D02*
X84940000Y27550000D01*
%TO.C,D30*%
X27260000Y33834000D02*
X27260000Y35684000D01*
X28460000Y35684000D02*
X27260000Y35684000D01*
X28460000Y33834000D02*
X28460000Y35684000D01*
%TO.C,D25*%
X66560000Y73784000D02*
X65360000Y73784000D01*
X65360000Y71934000D02*
X65360000Y73784000D01*
X66560000Y71934000D02*
X66560000Y73784000D01*
%TO.C,C6*%
X48033836Y46336000D02*
X47818164Y46336000D01*
X48033836Y45616000D02*
X47818164Y45616000D01*
%TO.C,SW7*%
X56852000Y58198000D02*
X51752000Y58198000D01*
X52952000Y53998000D02*
X47852000Y53998000D01*
X58852000Y56198000D02*
G75*
G03*
X56852000Y58198000I-1999999J1D01*
G01*
X54952000Y51998000D02*
G75*
G03*
X52952000Y53998000I-1999999J1D01*
G01*
%TO.C,SW11*%
X56852000Y39148000D02*
X51752000Y39148000D01*
X52952000Y34948000D02*
X47852000Y34948000D01*
X54952000Y32948000D02*
G75*
G03*
X52952000Y34948000I-1999999J1D01*
G01*
X58852000Y37148000D02*
G75*
G03*
X56852000Y39148000I-1999999J1D01*
G01*
%TO.C,SW2*%
X37802000Y77248000D02*
X32702000Y77248000D01*
X33902000Y73048000D02*
X28802000Y73048000D01*
X35902000Y71048000D02*
G75*
G03*
X33902000Y73048000I-1999999J1D01*
G01*
X39802000Y75248000D02*
G75*
G03*
X37802000Y77248000I-1999999J1D01*
G01*
%TO.C,SW14*%
X33902000Y15898000D02*
X28802000Y15898000D01*
X37802000Y20098000D02*
X32702000Y20098000D01*
X39802000Y18098000D02*
G75*
G03*
X37802000Y20098000I-1999999J1D01*
G01*
X35902000Y13898000D02*
G75*
G03*
X33902000Y15898000I-1999999J1D01*
G01*
%TO.C,SW9*%
X14852000Y34948000D02*
X9752000Y34948000D01*
X18752000Y39148000D02*
X13652000Y39148000D01*
X20752000Y37148000D02*
G75*
G03*
X18752000Y39148000I-1999999J1D01*
G01*
X16852000Y32948000D02*
G75*
G03*
X14852000Y34948000I-1999999J1D01*
G01*
%TO.C,SW1*%
X14852000Y73048000D02*
X9752000Y73048000D01*
X18752000Y77248000D02*
X13652000Y77248000D01*
X16852000Y71048000D02*
G75*
G03*
X14852000Y73048000I-1999999J1D01*
G01*
X20752000Y75248000D02*
G75*
G03*
X18752000Y77248000I-1999999J1D01*
G01*
%TO.C,SW8*%
X75902000Y58198000D02*
X70802000Y58198000D01*
X72002000Y53998000D02*
X66902000Y53998000D01*
X77902000Y56198000D02*
G75*
G03*
X75902000Y58198000I-1999999J1D01*
G01*
X74002000Y51998000D02*
G75*
G03*
X72002000Y53998000I-1999999J1D01*
G01*
%TO.C,SW13*%
X14852000Y15898000D02*
X9752000Y15898000D01*
X18752000Y20098000D02*
X13652000Y20098000D01*
X20752000Y18098000D02*
G75*
G03*
X18752000Y20098000I-1999999J1D01*
G01*
X16852000Y13898000D02*
G75*
G03*
X14852000Y15898000I-1999999J1D01*
G01*
%TO.C,SW15*%
X56852000Y20098000D02*
X51752000Y20098000D01*
X52952000Y15898000D02*
X47852000Y15898000D01*
X54952000Y13898000D02*
G75*
G03*
X52952000Y15898000I-1999999J1D01*
G01*
X58852000Y18098000D02*
G75*
G03*
X56852000Y20098000I-1999999J1D01*
G01*
%TO.C,SW6*%
X33902000Y53998000D02*
X28802000Y53998000D01*
X37802000Y58198000D02*
X32702000Y58198000D01*
X39802000Y56198000D02*
G75*
G03*
X37802000Y58198000I-1999999J1D01*
G01*
X35902000Y51998000D02*
G75*
G03*
X33902000Y53998000I-1999999J1D01*
G01*
%TO.C,SW4*%
X72002000Y73048000D02*
X66902000Y73048000D01*
X75902000Y77248000D02*
X70802000Y77248000D01*
X77902000Y75248000D02*
G75*
G03*
X75902000Y77248000I-1999999J1D01*
G01*
X74002000Y71048000D02*
G75*
G03*
X72002000Y73048000I-1999999J1D01*
G01*
%TO.C,SW16*%
X75902000Y20098000D02*
X70802000Y20098000D01*
X72002000Y15898000D02*
X66902000Y15898000D01*
X74002000Y13898000D02*
G75*
G03*
X72002000Y15898000I-1999999J1D01*
G01*
X77902000Y18098000D02*
G75*
G03*
X75902000Y20098000I-1999999J1D01*
G01*
%TO.C,SW10*%
X37802000Y39148000D02*
X32702000Y39148000D01*
X33902000Y34948000D02*
X28802000Y34948000D01*
X35902000Y32948000D02*
G75*
G03*
X33902000Y34948000I-1999999J1D01*
G01*
X39802000Y37148000D02*
G75*
G03*
X37802000Y39148000I-1999999J1D01*
G01*
%TO.C,SW5*%
X14852000Y53998000D02*
X9752000Y53998000D01*
X18752000Y58198000D02*
X13652000Y58198000D01*
X20752000Y56198000D02*
G75*
G03*
X18752000Y58198000I-1999999J1D01*
G01*
X16852000Y51998000D02*
G75*
G03*
X14852000Y53998000I-1999999J1D01*
G01*
%TO.C,SW3*%
X56852000Y77248000D02*
X51752000Y77248000D01*
X52952000Y73048000D02*
X47852000Y73048000D01*
X58852000Y75248000D02*
G75*
G03*
X56852000Y77248000I-1999999J1D01*
G01*
X54952000Y71048000D02*
G75*
G03*
X52952000Y73048000I-1999999J1D01*
G01*
%TO.C,SW12*%
X72002000Y34948000D02*
X66902000Y34948000D01*
X75902000Y39148000D02*
X70802000Y39148000D01*
X74002000Y32948000D02*
G75*
G03*
X72002000Y34948000I-1999999J1D01*
G01*
X77902000Y37148000D02*
G75*
G03*
X75902000Y39148000I-1999999J1D01*
G01*
%TD*%
M02*
