M48
; DRILL file {KiCad 6.0.7+dfsg-1~bpo11+1} date Wed Nov  2 04:35:51 2022
; FORMAT={-:-/ absolute / metric / decimal}
; #@! TF.CreationDate,2022-11-02T04:35:51+00:00
; #@! TF.GenerationSoftware,Kicad,Pcbnew,6.0.7+dfsg-1~bpo11+1
; #@! TF.FileFunction,NonPlated,1,2,NPTH
FMAT,2
METRIC
; #@! TA.AperFunction,NonPlated,NPTH,ComponentDrill
T1C1.750
; #@! TA.AperFunction,NonPlated,NPTH,ComponentDrill
T2C2.200
; #@! TA.AperFunction,NonPlated,NPTH,ComponentDrill
T3C3.050
; #@! TA.AperFunction,NonPlated,NPTH,ComponentDrill
T4C4.000
%
G90
G05
T1
X9.572Y70.348
X9.572Y51.298
X9.572Y32.248
X9.572Y13.198
X19.732Y70.348
X19.732Y51.298
X19.732Y32.248
X19.732Y13.198
X28.622Y70.348
X28.622Y51.298
X28.622Y32.248
X28.622Y13.198
X38.782Y70.348
X38.782Y51.298
X38.782Y32.248
X38.782Y13.198
X47.672Y70.348
X47.672Y51.298
X47.672Y32.248
X47.672Y13.198
X57.832Y70.348
X57.832Y51.298
X57.832Y32.248
X57.832Y13.198
X66.722Y70.348
X66.722Y51.298
X66.722Y32.248
X66.722Y13.198
X76.882Y70.348
X76.882Y51.298
X76.882Y32.248
X76.882Y13.198
T2
X2.5Y77.5
X2.5Y2.5
X97.5Y77.5
X97.5Y2.5
T3
X12.112Y75.428
X12.112Y56.378
X12.112Y37.328
X12.112Y18.278
X18.462Y72.888
X18.462Y53.838
X18.462Y34.788
X18.462Y15.738
X31.162Y75.428
X31.162Y56.378
X31.162Y37.328
X31.162Y18.278
X37.512Y72.888
X37.512Y53.838
X37.512Y34.788
X37.512Y15.738
X50.212Y75.428
X50.212Y56.378
X50.212Y37.328
X50.212Y18.278
X56.562Y72.888
X56.562Y53.838
X56.562Y34.788
X56.562Y15.738
X69.262Y75.428
X69.262Y56.378
X69.262Y37.328
X69.262Y18.278
X75.612Y72.888
X75.612Y53.838
X75.612Y34.788
X75.612Y15.738
T4
X14.652Y70.348
X14.652Y51.298
X14.652Y32.248
X14.652Y13.198
X33.702Y70.348
X33.702Y51.298
X33.702Y32.248
X33.702Y13.198
X52.752Y70.348
X52.752Y51.298
X52.752Y32.248
X52.752Y13.198
X71.802Y70.348
X71.802Y51.298
X71.802Y32.248
X71.802Y13.198
T0
M30
