M48
; DRILL file {KiCad 6.0.7+dfsg-1~bpo11+1} date Wed Nov  2 04:35:51 2022
; FORMAT={-:-/ absolute / metric / decimal}
; #@! TF.CreationDate,2022-11-02T04:35:51+00:00
; #@! TF.GenerationSoftware,Kicad,Pcbnew,6.0.7+dfsg-1~bpo11+1
; #@! TF.FileFunction,Plated,1,2,PTH
FMAT,2
METRIC
; #@! TA.AperFunction,Plated,PTH,ViaDrill
T1C0.300
; #@! TA.AperFunction,Plated,PTH,ViaDrill
T2C0.400
; #@! TA.AperFunction,Plated,PTH,ViaDrill
T3C0.500
; #@! TA.AperFunction,Plated,PTH,ComponentDrill
T4C1.000
%
G90
G05
T1
X8.302Y65.522
X8.302Y64.76
X8.302Y46.472
X8.302Y45.71
X8.302Y27.422
X8.302Y26.66
X8.302Y8.372
X8.302Y7.61
X9.826Y71.872
X9.826Y52.822
X9.826Y33.772
X9.826Y14.722
X10.588Y71.872
X10.588Y52.822
X10.588Y33.772
X10.588Y14.722
X15.16Y61.458
X15.16Y42.408
X15.16Y23.358
X18.716Y66.538
X18.716Y47.488
X18.716Y28.438
X18.716Y9.388
X19.478Y66.538
X19.478Y47.488
X19.478Y28.438
X19.478Y9.388
X22.526Y71.11
X22.526Y70.348
X22.526Y52.06
X22.526Y51.298
X22.526Y33.01
X22.526Y32.248
X22.526Y13.96
X22.526Y13.198
X22.78Y61.458
X22.78Y42.408
X22.78Y23.358
X27.098Y61.458
X27.098Y42.408
X27.098Y23.358
X27.352Y65.522
X27.352Y64.76
X27.352Y46.472
X27.352Y45.71
X27.352Y27.422
X27.352Y26.66
X27.352Y8.372
X27.352Y7.61
X28.876Y71.872
X28.876Y52.822
X28.876Y33.772
X28.876Y14.722
X29.638Y71.872
X29.638Y52.822
X29.638Y33.772
X29.638Y14.722
X37.766Y66.538
X37.766Y47.488
X37.766Y28.438
X37.766Y9.388
X38.528Y66.538
X38.528Y47.488
X38.528Y28.438
X38.528Y9.388
X41.576Y71.11
X41.576Y70.348
X41.576Y52.06
X41.576Y51.298
X41.576Y33.01
X41.576Y32.248
X41.576Y13.96
X41.576Y13.198
X46.402Y65.522
X46.402Y64.76
X46.402Y46.472
X46.402Y45.71
X46.402Y27.422
X46.402Y26.66
X46.402Y8.372
X46.402Y7.61
X47.926Y71.872
X47.926Y52.822
X47.926Y33.772
X47.926Y14.722
X48.688Y71.872
X48.688Y52.822
X48.688Y33.772
X48.688Y14.722
X56.816Y66.538
X56.816Y47.488
X56.816Y28.438
X56.816Y9.388
X57.578Y66.538
X57.578Y47.488
X57.578Y28.438
X57.578Y9.388
X60.626Y71.11
X60.626Y70.348
X60.626Y52.06
X60.626Y51.298
X60.626Y33.01
X60.626Y32.248
X60.626Y13.96
X60.626Y13.198
X65.452Y65.522
X65.452Y64.76
X65.452Y46.472
X65.452Y45.71
X65.452Y27.422
X65.452Y26.66
X65.452Y8.372
X65.452Y7.61
X66.976Y71.872
X66.976Y52.822
X66.976Y33.772
X66.976Y14.722
X67.738Y71.872
X67.738Y52.822
X67.738Y33.772
X67.738Y14.722
X75.866Y66.538
X75.866Y47.488
X75.866Y28.438
X75.866Y9.388
X76.628Y66.538
X76.628Y47.488
X76.628Y28.438
X76.628Y9.388
X78.66Y61.458
X78.66Y42.408
X78.66Y23.358
X79.676Y71.11
X79.676Y70.348
X79.676Y52.06
X79.676Y51.298
X79.676Y33.01
X79.676Y32.248
X79.676Y13.96
X79.676Y13.198
X82.724Y64.76
X82.724Y61.204
X82.724Y57.648
X82.724Y48.504
X82.724Y44.948
X82.724Y38.852
X82.724Y35.296
X82.724Y26.66
X82.724Y24.12
X85.264Y24.12
T2
X11.95Y67.75
X11.95Y48.75
X11.95Y29.75
X13.0Y60.5
X13.0Y41.5
X13.0Y22.5
X77.0Y46.5
X77.0Y27.5
X77.0Y8.5
X81.0Y60.5
X81.0Y41.5
X81.0Y22.5
X81.75Y62.5
X82.0Y72.0
X82.0Y34.0
X82.5Y47.0
X85.0Y64.5
X85.0Y48.75
X85.0Y26.5
X85.75Y64.0
X85.75Y57.0
X85.75Y26.0
X86.5Y73.75
X86.5Y52.0
X86.5Y35.75
X92.5Y35.5
X94.0Y73.25
T3
X25.0Y62.5
X25.0Y43.5
X25.0Y24.5
X25.0Y5.5
X84.0Y73.75
X84.0Y44.0
X84.0Y35.75
T4
X89.375Y58.375
X89.375Y55.835
X89.375Y53.295
X89.375Y50.755
X89.375Y48.215
X89.375Y45.675
X89.375Y43.135
X89.375Y40.595
T0
M30
