%TF.GenerationSoftware,KiCad,Pcbnew,6.0.7+dfsg-1~bpo11+1*%
%TF.CreationDate,2022-11-02T04:35:50+00:00*%
%TF.ProjectId,MK74HC-16,4d4b3734-4843-42d3-9136-2e6b69636164,rev?*%
%TF.SameCoordinates,Original*%
%TF.FileFunction,Soldermask,Top*%
%TF.FilePolarity,Negative*%
%FSLAX46Y46*%
G04 Gerber Fmt 4.6, Leading zero omitted, Abs format (unit mm)*
G04 Created by KiCad (PCBNEW 6.0.7+dfsg-1~bpo11+1) date 2022-11-02 04:35:50*
%MOMM*%
%LPD*%
G01*
G04 APERTURE LIST*
G04 Aperture macros list*
%AMRoundRect*
0 Rectangle with rounded corners*
0 $1 Rounding radius*
0 $2 $3 $4 $5 $6 $7 $8 $9 X,Y pos of 4 corners*
0 Add a 4 corners polygon primitive as box body*
4,1,4,$2,$3,$4,$5,$6,$7,$8,$9,$2,$3,0*
0 Add four circle primitives for the rounded corners*
1,1,$1+$1,$2,$3*
1,1,$1+$1,$4,$5*
1,1,$1+$1,$6,$7*
1,1,$1+$1,$8,$9*
0 Add four rect primitives between the rounded corners*
20,1,$1+$1,$2,$3,$4,$5,0*
20,1,$1+$1,$4,$5,$6,$7,0*
20,1,$1+$1,$6,$7,$8,$9,0*
20,1,$1+$1,$8,$9,$2,$3,0*%
G04 Aperture macros list end*
%ADD10RoundRect,0.050000X0.350000X-0.300000X0.350000X0.300000X-0.350000X0.300000X-0.350000X-0.300000X0*%
%ADD11C,2.300000*%
%ADD12RoundRect,0.050000X0.900000X0.410000X-0.900000X0.410000X-0.900000X-0.410000X0.900000X-0.410000X0*%
%ADD13RoundRect,0.190000X0.140000X0.170000X-0.140000X0.170000X-0.140000X-0.170000X0.140000X-0.170000X0*%
%ADD14RoundRect,0.050000X0.250000X0.200000X-0.250000X0.200000X-0.250000X-0.200000X0.250000X-0.200000X0*%
%ADD15RoundRect,0.050000X0.250000X0.150000X-0.250000X0.150000X-0.250000X-0.150000X0.250000X-0.150000X0*%
%ADD16RoundRect,0.185000X0.135000X0.185000X-0.135000X0.185000X-0.135000X-0.185000X0.135000X-0.185000X0*%
%ADD17RoundRect,0.050000X-0.850000X-0.850000X0.850000X-0.850000X0.850000X0.850000X-0.850000X0.850000X0*%
%ADD18O,1.800000X1.800000*%
%ADD19RoundRect,0.190000X0.170000X-0.140000X0.170000X0.140000X-0.170000X0.140000X-0.170000X-0.140000X0*%
%ADD20RoundRect,0.200000X0.150000X-0.825000X0.150000X0.825000X-0.150000X0.825000X-0.150000X-0.825000X0*%
%ADD21C,3.150000*%
%ADD22C,1.850000*%
%ADD23C,4.100000*%
%ADD24RoundRect,0.300000X1.025000X1.000000X-1.025000X1.000000X-1.025000X-1.000000X1.025000X-1.000000X0*%
G04 APERTURE END LIST*
D10*
%TO.C,D27*%
X46910000Y73334000D03*
X46910000Y71934000D03*
%TD*%
D11*
%TO.C,H2*%
X2500000Y77500000D03*
%TD*%
D12*
%TO.C,D13*%
X69102000Y7876000D03*
X69102000Y9376000D03*
X74502000Y9376000D03*
X74502000Y7876000D03*
%TD*%
D13*
%TO.C,C15*%
X67456000Y7876000D03*
X66496000Y7876000D03*
%TD*%
D12*
%TO.C,D8*%
X11952000Y45976000D03*
X11952000Y47476000D03*
X17352000Y47476000D03*
X17352000Y45976000D03*
%TD*%
D10*
%TO.C,D17*%
X65960000Y54284000D03*
X65960000Y52884000D03*
%TD*%
D14*
%TO.C,RN4*%
X83000000Y29000000D03*
D15*
X83000000Y29500000D03*
X83000000Y30000000D03*
D14*
X83000000Y30500000D03*
X82000000Y30500000D03*
D15*
X82000000Y30000000D03*
X82000000Y29500000D03*
D14*
X82000000Y29000000D03*
%TD*%
D10*
%TO.C,D28*%
X46910000Y35234000D03*
X46910000Y33834000D03*
%TD*%
%TO.C,D24*%
X8810000Y16184000D03*
X8810000Y14784000D03*
%TD*%
D11*
%TO.C,H1*%
X97500000Y77500000D03*
%TD*%
D13*
%TO.C,C17*%
X29356000Y7876000D03*
X28396000Y7876000D03*
%TD*%
%TO.C,C8*%
X10306000Y45976000D03*
X9346000Y45976000D03*
%TD*%
D12*
%TO.C,D1*%
X69102000Y65026000D03*
X69102000Y66526000D03*
X74502000Y66526000D03*
X74502000Y65026000D03*
%TD*%
D13*
%TO.C,C11*%
X67456000Y26926000D03*
X66496000Y26926000D03*
%TD*%
%TO.C,C12*%
X48406000Y26926000D03*
X47446000Y26926000D03*
%TD*%
%TO.C,C13*%
X29356000Y26926000D03*
X28396000Y26926000D03*
%TD*%
D12*
%TO.C,D3*%
X31002000Y65026000D03*
X31002000Y66526000D03*
X36402000Y66526000D03*
X36402000Y65026000D03*
%TD*%
D16*
%TO.C,R1*%
X77138000Y65026000D03*
X76118000Y65026000D03*
%TD*%
D12*
%TO.C,D5*%
X69102000Y45976000D03*
X69102000Y47476000D03*
X74502000Y47476000D03*
X74502000Y45976000D03*
%TD*%
D17*
%TO.C,J1*%
X89375000Y58375000D03*
D18*
X89375000Y55835000D03*
X89375000Y53295000D03*
X89375000Y50755000D03*
X89375000Y48215000D03*
X89375000Y45675000D03*
X89375000Y43135000D03*
X89375000Y40595000D03*
%TD*%
D10*
%TO.C,D29*%
X27860000Y73334000D03*
X27860000Y71934000D03*
%TD*%
D14*
%TO.C,RN3*%
X83000000Y31500000D03*
D15*
X83000000Y32000000D03*
X83000000Y32500000D03*
D14*
X83000000Y33000000D03*
X82000000Y33000000D03*
D15*
X82000000Y32500000D03*
X82000000Y32000000D03*
D14*
X82000000Y31500000D03*
%TD*%
D12*
%TO.C,D10*%
X50052000Y26926000D03*
X50052000Y28426000D03*
X55452000Y28426000D03*
X55452000Y26926000D03*
%TD*%
%TO.C,D6*%
X50052000Y45976000D03*
X50052000Y47476000D03*
X55452000Y47476000D03*
X55452000Y45976000D03*
%TD*%
D19*
%TO.C,C10*%
X85555000Y35270000D03*
X85555000Y36230000D03*
%TD*%
D20*
%TO.C,U1*%
X85555000Y66525000D03*
X86825000Y66525000D03*
X88095000Y66525000D03*
X89365000Y66525000D03*
X90635000Y66525000D03*
X91905000Y66525000D03*
X93175000Y66525000D03*
X94445000Y66525000D03*
X94445000Y71475000D03*
X93175000Y71475000D03*
X91905000Y71475000D03*
X90635000Y71475000D03*
X89365000Y71475000D03*
X88095000Y71475000D03*
X86825000Y71475000D03*
X85555000Y71475000D03*
%TD*%
D12*
%TO.C,D7*%
X31002000Y45976000D03*
X31002000Y47476000D03*
X36402000Y47476000D03*
X36402000Y45976000D03*
%TD*%
%TO.C,D2*%
X50052000Y65026000D03*
X50052000Y66526000D03*
X55452000Y66526000D03*
X55452000Y65026000D03*
%TD*%
D10*
%TO.C,D18*%
X65960000Y16184000D03*
X65960000Y14784000D03*
%TD*%
D13*
%TO.C,C5*%
X67456000Y45976000D03*
X66496000Y45976000D03*
%TD*%
%TO.C,C3*%
X29356000Y65026000D03*
X28396000Y65026000D03*
%TD*%
%TO.C,C2*%
X48406000Y65026000D03*
X47446000Y65026000D03*
%TD*%
D10*
%TO.C,D23*%
X8810000Y54284000D03*
X8810000Y52884000D03*
%TD*%
D13*
%TO.C,C4*%
X10306000Y65026000D03*
X9346000Y65026000D03*
%TD*%
%TO.C,C16*%
X48406000Y7876000D03*
X47446000Y7876000D03*
%TD*%
D11*
%TO.C,H4*%
X2500000Y2500000D03*
%TD*%
D14*
%TO.C,RN2*%
X83000000Y67000000D03*
D15*
X83000000Y67500000D03*
X83000000Y68000000D03*
D14*
X83000000Y68500000D03*
X82000000Y68500000D03*
D15*
X82000000Y68000000D03*
X82000000Y67500000D03*
D14*
X82000000Y67000000D03*
%TD*%
D10*
%TO.C,D26*%
X65960000Y35234000D03*
X65960000Y33834000D03*
%TD*%
%TO.C,D31*%
X8810000Y73334000D03*
X8810000Y71934000D03*
%TD*%
D12*
%TO.C,D4*%
X11952000Y65026000D03*
X11952000Y66526000D03*
X17352000Y66526000D03*
X17352000Y65026000D03*
%TD*%
%TO.C,D16*%
X11952000Y7876000D03*
X11952000Y9376000D03*
X17352000Y9376000D03*
X17352000Y7876000D03*
%TD*%
D10*
%TO.C,D32*%
X8810000Y35234000D03*
X8810000Y33834000D03*
%TD*%
D14*
%TO.C,RN1*%
X83000000Y69500000D03*
D15*
X83000000Y70000000D03*
X83000000Y70500000D03*
D14*
X83000000Y71000000D03*
X82000000Y71000000D03*
D15*
X82000000Y70500000D03*
X82000000Y70000000D03*
D14*
X82000000Y69500000D03*
%TD*%
D10*
%TO.C,D19*%
X46910000Y54284000D03*
X46910000Y52884000D03*
%TD*%
D13*
%TO.C,C7*%
X29356000Y45976000D03*
X28396000Y45976000D03*
%TD*%
D12*
%TO.C,D11*%
X31002000Y26926000D03*
X31002000Y28426000D03*
X36402000Y28426000D03*
X36402000Y26926000D03*
%TD*%
D10*
%TO.C,D20*%
X46910000Y16184000D03*
X46910000Y14784000D03*
%TD*%
D12*
%TO.C,D14*%
X50052000Y7876000D03*
X50052000Y9376000D03*
X55452000Y9376000D03*
X55452000Y7876000D03*
%TD*%
D13*
%TO.C,C1*%
X67456000Y65026000D03*
X66496000Y65026000D03*
%TD*%
D19*
%TO.C,C9*%
X85555000Y73270000D03*
X85555000Y74230000D03*
%TD*%
D11*
%TO.C,H3*%
X97500000Y2500000D03*
%TD*%
D13*
%TO.C,C18*%
X10306000Y7876000D03*
X9346000Y7876000D03*
%TD*%
D10*
%TO.C,D22*%
X27860000Y16184000D03*
X27860000Y14784000D03*
%TD*%
D13*
%TO.C,C14*%
X10306000Y26926000D03*
X9346000Y26926000D03*
%TD*%
D12*
%TO.C,D12*%
X11952000Y26926000D03*
X11952000Y28426000D03*
X17352000Y28426000D03*
X17352000Y26926000D03*
%TD*%
D10*
%TO.C,D21*%
X27860000Y54284000D03*
X27860000Y52884000D03*
%TD*%
D12*
%TO.C,D9*%
X69102000Y26926000D03*
X69102000Y28426000D03*
X74502000Y28426000D03*
X74502000Y26926000D03*
%TD*%
%TO.C,D15*%
X31002000Y7876000D03*
X31002000Y9376000D03*
X36402000Y9376000D03*
X36402000Y7876000D03*
%TD*%
D20*
%TO.C,U2*%
X85555000Y28525000D03*
X86825000Y28525000D03*
X88095000Y28525000D03*
X89365000Y28525000D03*
X90635000Y28525000D03*
X91905000Y28525000D03*
X93175000Y28525000D03*
X94445000Y28525000D03*
X94445000Y33475000D03*
X93175000Y33475000D03*
X91905000Y33475000D03*
X90635000Y33475000D03*
X89365000Y33475000D03*
X88095000Y33475000D03*
X86825000Y33475000D03*
X85555000Y33475000D03*
%TD*%
D10*
%TO.C,D30*%
X27860000Y35234000D03*
X27860000Y33834000D03*
%TD*%
%TO.C,D25*%
X65960000Y73334000D03*
X65960000Y71934000D03*
%TD*%
D13*
%TO.C,C6*%
X48406000Y45976000D03*
X47446000Y45976000D03*
%TD*%
D21*
%TO.C,SW7*%
X56562000Y53838000D03*
D22*
X57832000Y51298000D03*
D21*
X50212000Y56378000D03*
D23*
X52752000Y51298000D03*
D22*
X47672000Y51298000D03*
D24*
X59837000Y53838000D03*
X46910000Y56378000D03*
%TD*%
D23*
%TO.C,SW11*%
X52752000Y32248000D03*
D22*
X47672000Y32248000D03*
X57832000Y32248000D03*
D21*
X50212000Y37328000D03*
X56562000Y34788000D03*
D24*
X59837000Y34788000D03*
X46910000Y37328000D03*
%TD*%
D21*
%TO.C,SW2*%
X37512000Y72888000D03*
D23*
X33702000Y70348000D03*
D22*
X38782000Y70348000D03*
X28622000Y70348000D03*
D21*
X31162000Y75428000D03*
D24*
X40787000Y72888000D03*
X27860000Y75428000D03*
%TD*%
D22*
%TO.C,SW14*%
X38782000Y13198000D03*
D23*
X33702000Y13198000D03*
D22*
X28622000Y13198000D03*
D21*
X37512000Y15738000D03*
X31162000Y18278000D03*
D24*
X40787000Y15738000D03*
X27860000Y18278000D03*
%TD*%
D21*
%TO.C,SW9*%
X18462000Y34788000D03*
D22*
X19732000Y32248000D03*
D23*
X14652000Y32248000D03*
D22*
X9572000Y32248000D03*
D21*
X12112000Y37328000D03*
D24*
X21737000Y34788000D03*
X8810000Y37328000D03*
%TD*%
D22*
%TO.C,SW1*%
X9572000Y70348000D03*
X19732000Y70348000D03*
D21*
X18462000Y72888000D03*
X12112000Y75428000D03*
D23*
X14652000Y70348000D03*
D24*
X21737000Y72888000D03*
X8810000Y75428000D03*
%TD*%
D21*
%TO.C,SW8*%
X69262000Y56378000D03*
X75612000Y53838000D03*
D22*
X66722000Y51298000D03*
X76882000Y51298000D03*
D23*
X71802000Y51298000D03*
D24*
X78887000Y53838000D03*
X65960000Y56378000D03*
%TD*%
D23*
%TO.C,SW13*%
X14652000Y13198000D03*
D22*
X9572000Y13198000D03*
D21*
X12112000Y18278000D03*
X18462000Y15738000D03*
D22*
X19732000Y13198000D03*
D24*
X21737000Y15738000D03*
X8810000Y18278000D03*
%TD*%
D21*
%TO.C,SW15*%
X50212000Y18278000D03*
D22*
X47672000Y13198000D03*
D21*
X56562000Y15738000D03*
D22*
X57832000Y13198000D03*
D23*
X52752000Y13198000D03*
D24*
X59837000Y15738000D03*
X46910000Y18278000D03*
%TD*%
D22*
%TO.C,SW6*%
X28622000Y51298000D03*
D23*
X33702000Y51298000D03*
D21*
X31162000Y56378000D03*
X37512000Y53838000D03*
D22*
X38782000Y51298000D03*
D24*
X40787000Y53838000D03*
X27860000Y56378000D03*
%TD*%
D21*
%TO.C,SW4*%
X75612000Y72888000D03*
D22*
X66722000Y70348000D03*
D23*
X71802000Y70348000D03*
D21*
X69262000Y75428000D03*
D22*
X76882000Y70348000D03*
D24*
X78887000Y72888000D03*
X65960000Y75428000D03*
%TD*%
D21*
%TO.C,SW16*%
X69262000Y18278000D03*
D22*
X76882000Y13198000D03*
X66722000Y13198000D03*
D23*
X71802000Y13198000D03*
D21*
X75612000Y15738000D03*
D24*
X78887000Y15738000D03*
X65960000Y18278000D03*
%TD*%
D21*
%TO.C,SW10*%
X37512000Y34788000D03*
X31162000Y37328000D03*
D22*
X38782000Y32248000D03*
D23*
X33702000Y32248000D03*
D22*
X28622000Y32248000D03*
D24*
X40787000Y34788000D03*
X27860000Y37328000D03*
%TD*%
D22*
%TO.C,SW5*%
X19732000Y51298000D03*
D23*
X14652000Y51298000D03*
D21*
X12112000Y56378000D03*
X18462000Y53838000D03*
D22*
X9572000Y51298000D03*
D24*
X21737000Y53838000D03*
X8810000Y56378000D03*
%TD*%
D22*
%TO.C,SW3*%
X57832000Y70348000D03*
D23*
X52752000Y70348000D03*
D22*
X47672000Y70348000D03*
D21*
X50212000Y75428000D03*
X56562000Y72888000D03*
D24*
X59837000Y72888000D03*
X46910000Y75428000D03*
%TD*%
D21*
%TO.C,SW12*%
X75612000Y34788000D03*
D22*
X76882000Y32248000D03*
X66722000Y32248000D03*
D23*
X71802000Y32248000D03*
D21*
X69262000Y37328000D03*
D24*
X78887000Y34788000D03*
X65960000Y37328000D03*
%TD*%
G36*
X83285264Y29313382D02*
G01*
X83284931Y29312140D01*
X83281543Y29307069D01*
X83281841Y29306464D01*
X83281508Y29305484D01*
X83267375Y29284331D01*
X83274562Y29248205D01*
X83284445Y29238322D01*
X83284963Y29236390D01*
X83283549Y29234976D01*
X83281920Y29235245D01*
X83268355Y29244309D01*
X83249801Y29248000D01*
X82750199Y29248000D01*
X82731646Y29244309D01*
X82717843Y29235086D01*
X82715848Y29234955D01*
X82714736Y29236618D01*
X82715069Y29237860D01*
X82718457Y29242931D01*
X82718159Y29243536D01*
X82718492Y29244516D01*
X82732625Y29265669D01*
X82725438Y29301795D01*
X82715555Y29311678D01*
X82715037Y29313610D01*
X82716451Y29315024D01*
X82718080Y29314755D01*
X82731645Y29305691D01*
X82750199Y29302000D01*
X83249801Y29302000D01*
X83268354Y29305691D01*
X83282157Y29314914D01*
X83284152Y29315045D01*
X83285264Y29313382D01*
G37*
G36*
X82285264Y29313382D02*
G01*
X82284931Y29312140D01*
X82281543Y29307069D01*
X82281841Y29306464D01*
X82281508Y29305484D01*
X82267375Y29284331D01*
X82274562Y29248205D01*
X82284445Y29238322D01*
X82284963Y29236390D01*
X82283549Y29234976D01*
X82281920Y29235245D01*
X82268355Y29244309D01*
X82249801Y29248000D01*
X81750199Y29248000D01*
X81731646Y29244309D01*
X81717843Y29235086D01*
X81715848Y29234955D01*
X81714736Y29236618D01*
X81715069Y29237860D01*
X81718457Y29242931D01*
X81718159Y29243536D01*
X81718492Y29244516D01*
X81732625Y29265669D01*
X81725438Y29301795D01*
X81715555Y29311678D01*
X81715037Y29313610D01*
X81716451Y29315024D01*
X81718080Y29314755D01*
X81731645Y29305691D01*
X81750199Y29302000D01*
X82249801Y29302000D01*
X82268354Y29305691D01*
X82282157Y29314914D01*
X82284152Y29315045D01*
X82285264Y29313382D01*
G37*
G36*
X83285264Y30263382D02*
G01*
X83284931Y30262140D01*
X83281543Y30257069D01*
X83281841Y30256464D01*
X83281508Y30255484D01*
X83267375Y30234331D01*
X83274562Y30198205D01*
X83284445Y30188322D01*
X83284963Y30186390D01*
X83283549Y30184976D01*
X83281920Y30185245D01*
X83268355Y30194309D01*
X83249801Y30198000D01*
X82750199Y30198000D01*
X82731646Y30194309D01*
X82717843Y30185086D01*
X82715848Y30184955D01*
X82714736Y30186618D01*
X82715069Y30187860D01*
X82718457Y30192931D01*
X82718159Y30193536D01*
X82718492Y30194516D01*
X82732625Y30215669D01*
X82725438Y30251795D01*
X82715555Y30261678D01*
X82715037Y30263610D01*
X82716451Y30265024D01*
X82718080Y30264755D01*
X82731645Y30255691D01*
X82750199Y30252000D01*
X83249801Y30252000D01*
X83268354Y30255691D01*
X83282157Y30264914D01*
X83284152Y30265045D01*
X83285264Y30263382D01*
G37*
G36*
X82285264Y30263382D02*
G01*
X82284931Y30262140D01*
X82281543Y30257069D01*
X82281841Y30256464D01*
X82281508Y30255484D01*
X82267375Y30234331D01*
X82274562Y30198205D01*
X82284445Y30188322D01*
X82284963Y30186390D01*
X82283549Y30184976D01*
X82281920Y30185245D01*
X82268355Y30194309D01*
X82249801Y30198000D01*
X81750199Y30198000D01*
X81731646Y30194309D01*
X81717843Y30185086D01*
X81715848Y30184955D01*
X81714736Y30186618D01*
X81715069Y30187860D01*
X81718457Y30192931D01*
X81718159Y30193536D01*
X81718492Y30194516D01*
X81732625Y30215669D01*
X81725438Y30251795D01*
X81715555Y30261678D01*
X81715037Y30263610D01*
X81716451Y30265024D01*
X81718080Y30264755D01*
X81731645Y30255691D01*
X81750199Y30252000D01*
X82249801Y30252000D01*
X82268354Y30255691D01*
X82282157Y30264914D01*
X82284152Y30265045D01*
X82285264Y30263382D01*
G37*
G36*
X83285264Y31813382D02*
G01*
X83284931Y31812140D01*
X83281543Y31807069D01*
X83281841Y31806464D01*
X83281508Y31805484D01*
X83267375Y31784331D01*
X83274562Y31748205D01*
X83284445Y31738322D01*
X83284963Y31736390D01*
X83283549Y31734976D01*
X83281920Y31735245D01*
X83268355Y31744309D01*
X83249801Y31748000D01*
X82750199Y31748000D01*
X82731646Y31744309D01*
X82717843Y31735086D01*
X82715848Y31734955D01*
X82714736Y31736618D01*
X82715069Y31737860D01*
X82718457Y31742931D01*
X82718159Y31743536D01*
X82718492Y31744516D01*
X82732625Y31765669D01*
X82725438Y31801795D01*
X82715555Y31811678D01*
X82715037Y31813610D01*
X82716451Y31815024D01*
X82718080Y31814755D01*
X82731645Y31805691D01*
X82750199Y31802000D01*
X83249801Y31802000D01*
X83268354Y31805691D01*
X83282157Y31814914D01*
X83284152Y31815045D01*
X83285264Y31813382D01*
G37*
G36*
X82285264Y31813382D02*
G01*
X82284931Y31812140D01*
X82281543Y31807069D01*
X82281841Y31806464D01*
X82281508Y31805484D01*
X82267375Y31784331D01*
X82274562Y31748205D01*
X82284445Y31738322D01*
X82284963Y31736390D01*
X82283549Y31734976D01*
X82281920Y31735245D01*
X82268355Y31744309D01*
X82249801Y31748000D01*
X81750199Y31748000D01*
X81731646Y31744309D01*
X81717843Y31735086D01*
X81715848Y31734955D01*
X81714736Y31736618D01*
X81715069Y31737860D01*
X81718457Y31742931D01*
X81718159Y31743536D01*
X81718492Y31744516D01*
X81732625Y31765669D01*
X81725438Y31801795D01*
X81715555Y31811678D01*
X81715037Y31813610D01*
X81716451Y31815024D01*
X81718080Y31814755D01*
X81731645Y31805691D01*
X81750199Y31802000D01*
X82249801Y31802000D01*
X82268354Y31805691D01*
X82282157Y31814914D01*
X82284152Y31815045D01*
X82285264Y31813382D01*
G37*
G36*
X83285264Y32763382D02*
G01*
X83284931Y32762140D01*
X83281543Y32757069D01*
X83281841Y32756464D01*
X83281508Y32755484D01*
X83267375Y32734331D01*
X83274562Y32698205D01*
X83284445Y32688322D01*
X83284963Y32686390D01*
X83283549Y32684976D01*
X83281920Y32685245D01*
X83268355Y32694309D01*
X83249801Y32698000D01*
X82750199Y32698000D01*
X82731646Y32694309D01*
X82717843Y32685086D01*
X82715848Y32684955D01*
X82714736Y32686618D01*
X82715069Y32687860D01*
X82718457Y32692931D01*
X82718159Y32693536D01*
X82718492Y32694516D01*
X82732625Y32715669D01*
X82725438Y32751795D01*
X82715555Y32761678D01*
X82715037Y32763610D01*
X82716451Y32765024D01*
X82718080Y32764755D01*
X82731645Y32755691D01*
X82750199Y32752000D01*
X83249801Y32752000D01*
X83268354Y32755691D01*
X83282157Y32764914D01*
X83284152Y32765045D01*
X83285264Y32763382D01*
G37*
G36*
X82285264Y32763382D02*
G01*
X82284931Y32762140D01*
X82281543Y32757069D01*
X82281841Y32756464D01*
X82281508Y32755484D01*
X82267375Y32734331D01*
X82274562Y32698205D01*
X82284445Y32688322D01*
X82284963Y32686390D01*
X82283549Y32684976D01*
X82281920Y32685245D01*
X82268355Y32694309D01*
X82249801Y32698000D01*
X81750199Y32698000D01*
X81731646Y32694309D01*
X81717843Y32685086D01*
X81715848Y32684955D01*
X81714736Y32686618D01*
X81715069Y32687860D01*
X81718457Y32692931D01*
X81718159Y32693536D01*
X81718492Y32694516D01*
X81732625Y32715669D01*
X81725438Y32751795D01*
X81715555Y32761678D01*
X81715037Y32763610D01*
X81716451Y32765024D01*
X81718080Y32764755D01*
X81731645Y32755691D01*
X81750199Y32752000D01*
X82249801Y32752000D01*
X82268354Y32755691D01*
X82282157Y32764914D01*
X82284152Y32765045D01*
X82285264Y32763382D01*
G37*
G36*
X82285264Y67313382D02*
G01*
X82284931Y67312140D01*
X82281543Y67307069D01*
X82281841Y67306464D01*
X82281508Y67305484D01*
X82267375Y67284331D01*
X82274562Y67248205D01*
X82284445Y67238322D01*
X82284963Y67236390D01*
X82283549Y67234976D01*
X82281920Y67235245D01*
X82268355Y67244309D01*
X82249801Y67248000D01*
X81750199Y67248000D01*
X81731646Y67244309D01*
X81717843Y67235086D01*
X81715848Y67234955D01*
X81714736Y67236618D01*
X81715069Y67237860D01*
X81718457Y67242931D01*
X81718159Y67243536D01*
X81718492Y67244516D01*
X81732625Y67265669D01*
X81725438Y67301795D01*
X81715555Y67311678D01*
X81715037Y67313610D01*
X81716451Y67315024D01*
X81718080Y67314755D01*
X81731645Y67305691D01*
X81750199Y67302000D01*
X82249801Y67302000D01*
X82268354Y67305691D01*
X82282157Y67314914D01*
X82284152Y67315045D01*
X82285264Y67313382D01*
G37*
G36*
X83285264Y67313382D02*
G01*
X83284931Y67312140D01*
X83281543Y67307069D01*
X83281841Y67306464D01*
X83281508Y67305484D01*
X83267375Y67284331D01*
X83274562Y67248205D01*
X83284445Y67238322D01*
X83284963Y67236390D01*
X83283549Y67234976D01*
X83281920Y67235245D01*
X83268355Y67244309D01*
X83249801Y67248000D01*
X82750199Y67248000D01*
X82731646Y67244309D01*
X82717843Y67235086D01*
X82715848Y67234955D01*
X82714736Y67236618D01*
X82715069Y67237860D01*
X82718457Y67242931D01*
X82718159Y67243536D01*
X82718492Y67244516D01*
X82732625Y67265669D01*
X82725438Y67301795D01*
X82715555Y67311678D01*
X82715037Y67313610D01*
X82716451Y67315024D01*
X82718080Y67314755D01*
X82731645Y67305691D01*
X82750199Y67302000D01*
X83249801Y67302000D01*
X83268354Y67305691D01*
X83282157Y67314914D01*
X83284152Y67315045D01*
X83285264Y67313382D01*
G37*
G36*
X82285264Y68263382D02*
G01*
X82284931Y68262140D01*
X82281543Y68257069D01*
X82281841Y68256464D01*
X82281508Y68255484D01*
X82267375Y68234331D01*
X82274562Y68198205D01*
X82284445Y68188322D01*
X82284963Y68186390D01*
X82283549Y68184976D01*
X82281920Y68185245D01*
X82268355Y68194309D01*
X82249801Y68198000D01*
X81750199Y68198000D01*
X81731646Y68194309D01*
X81717843Y68185086D01*
X81715848Y68184955D01*
X81714736Y68186618D01*
X81715069Y68187860D01*
X81718457Y68192931D01*
X81718159Y68193536D01*
X81718492Y68194516D01*
X81732625Y68215669D01*
X81725438Y68251795D01*
X81715555Y68261678D01*
X81715037Y68263610D01*
X81716451Y68265024D01*
X81718080Y68264755D01*
X81731645Y68255691D01*
X81750199Y68252000D01*
X82249801Y68252000D01*
X82268354Y68255691D01*
X82282157Y68264914D01*
X82284152Y68265045D01*
X82285264Y68263382D01*
G37*
G36*
X83285264Y68263382D02*
G01*
X83284931Y68262140D01*
X83281543Y68257069D01*
X83281841Y68256464D01*
X83281508Y68255484D01*
X83267375Y68234331D01*
X83274562Y68198205D01*
X83284445Y68188322D01*
X83284963Y68186390D01*
X83283549Y68184976D01*
X83281920Y68185245D01*
X83268355Y68194309D01*
X83249801Y68198000D01*
X82750199Y68198000D01*
X82731646Y68194309D01*
X82717843Y68185086D01*
X82715848Y68184955D01*
X82714736Y68186618D01*
X82715069Y68187860D01*
X82718457Y68192931D01*
X82718159Y68193536D01*
X82718492Y68194516D01*
X82732625Y68215669D01*
X82725438Y68251795D01*
X82715555Y68261678D01*
X82715037Y68263610D01*
X82716451Y68265024D01*
X82718080Y68264755D01*
X82731645Y68255691D01*
X82750199Y68252000D01*
X83249801Y68252000D01*
X83268354Y68255691D01*
X83282157Y68264914D01*
X83284152Y68265045D01*
X83285264Y68263382D01*
G37*
G36*
X83285264Y69813382D02*
G01*
X83284931Y69812140D01*
X83281543Y69807069D01*
X83281841Y69806464D01*
X83281508Y69805484D01*
X83267375Y69784331D01*
X83274562Y69748205D01*
X83284445Y69738322D01*
X83284963Y69736390D01*
X83283549Y69734976D01*
X83281920Y69735245D01*
X83268355Y69744309D01*
X83249801Y69748000D01*
X82750199Y69748000D01*
X82731646Y69744309D01*
X82717843Y69735086D01*
X82715848Y69734955D01*
X82714736Y69736618D01*
X82715069Y69737860D01*
X82718457Y69742931D01*
X82718159Y69743536D01*
X82718492Y69744516D01*
X82732625Y69765669D01*
X82725438Y69801795D01*
X82715555Y69811678D01*
X82715037Y69813610D01*
X82716451Y69815024D01*
X82718080Y69814755D01*
X82731645Y69805691D01*
X82750199Y69802000D01*
X83249801Y69802000D01*
X83268354Y69805691D01*
X83282157Y69814914D01*
X83284152Y69815045D01*
X83285264Y69813382D01*
G37*
G36*
X82285264Y69813382D02*
G01*
X82284931Y69812140D01*
X82281543Y69807069D01*
X82281841Y69806464D01*
X82281508Y69805484D01*
X82267375Y69784331D01*
X82274562Y69748205D01*
X82284445Y69738322D01*
X82284963Y69736390D01*
X82283549Y69734976D01*
X82281920Y69735245D01*
X82268355Y69744309D01*
X82249801Y69748000D01*
X81750199Y69748000D01*
X81731646Y69744309D01*
X81717843Y69735086D01*
X81715848Y69734955D01*
X81714736Y69736618D01*
X81715069Y69737860D01*
X81718457Y69742931D01*
X81718159Y69743536D01*
X81718492Y69744516D01*
X81732625Y69765669D01*
X81725438Y69801795D01*
X81715555Y69811678D01*
X81715037Y69813610D01*
X81716451Y69815024D01*
X81718080Y69814755D01*
X81731645Y69805691D01*
X81750199Y69802000D01*
X82249801Y69802000D01*
X82268354Y69805691D01*
X82282157Y69814914D01*
X82284152Y69815045D01*
X82285264Y69813382D01*
G37*
G36*
X82285264Y70763382D02*
G01*
X82284931Y70762140D01*
X82281543Y70757069D01*
X82281841Y70756464D01*
X82281508Y70755484D01*
X82267375Y70734331D01*
X82274562Y70698205D01*
X82284445Y70688322D01*
X82284963Y70686390D01*
X82283549Y70684976D01*
X82281920Y70685245D01*
X82268355Y70694309D01*
X82249801Y70698000D01*
X81750199Y70698000D01*
X81731646Y70694309D01*
X81717843Y70685086D01*
X81715848Y70684955D01*
X81714736Y70686618D01*
X81715069Y70687860D01*
X81718457Y70692931D01*
X81718159Y70693536D01*
X81718492Y70694516D01*
X81732625Y70715669D01*
X81725438Y70751795D01*
X81715555Y70761678D01*
X81715037Y70763610D01*
X81716451Y70765024D01*
X81718080Y70764755D01*
X81731645Y70755691D01*
X81750199Y70752000D01*
X82249801Y70752000D01*
X82268354Y70755691D01*
X82282157Y70764914D01*
X82284152Y70765045D01*
X82285264Y70763382D01*
G37*
G36*
X83285264Y70763382D02*
G01*
X83284931Y70762140D01*
X83281543Y70757069D01*
X83281841Y70756464D01*
X83281508Y70755484D01*
X83267375Y70734331D01*
X83274562Y70698205D01*
X83284445Y70688322D01*
X83284963Y70686390D01*
X83283549Y70684976D01*
X83281920Y70685245D01*
X83268355Y70694309D01*
X83249801Y70698000D01*
X82750199Y70698000D01*
X82731646Y70694309D01*
X82717843Y70685086D01*
X82715848Y70684955D01*
X82714736Y70686618D01*
X82715069Y70687860D01*
X82718457Y70692931D01*
X82718159Y70693536D01*
X82718492Y70694516D01*
X82732625Y70715669D01*
X82725438Y70751795D01*
X82715555Y70761678D01*
X82715037Y70763610D01*
X82716451Y70765024D01*
X82718080Y70764755D01*
X82731645Y70755691D01*
X82750199Y70752000D01*
X83249801Y70752000D01*
X83268354Y70755691D01*
X83282157Y70764914D01*
X83284152Y70765045D01*
X83285264Y70763382D01*
G37*
M02*
